<mxfile host="app.diagrams.net" agent="Mozilla/5.0 (Windows NT 10.0; Win64; x64) AppleWebKit/537.36 (KHTML, like Gecko) Chrome/130.0.0.0 Safari/537.36" version="24.8.3">
  <diagram name="Page-1" id="PRIMUVPS_YcjJzb4Q-P8">
    <mxGraphModel dx="1117" dy="772" grid="1" gridSize="10" guides="1" tooltips="1" connect="1" arrows="1" fold="1" page="1" pageScale="1" pageWidth="827" pageHeight="1169" math="0" shadow="0">
      <root>
        <mxCell id="0" />
        <mxCell id="1" parent="0" />
        <mxCell id="FCimhdWs5HZFkPtd6ZuO-1" value="Container" style="swimlane;fontStyle=1;align=center;verticalAlign=top;childLayout=stackLayout;horizontal=1;startSize=26;horizontalStack=0;resizeParent=1;resizeParentMax=0;resizeLast=0;collapsible=1;marginBottom=0;whiteSpace=wrap;html=1;" vertex="1" parent="1">
          <mxGeometry x="180" y="80" width="180" height="170" as="geometry" />
        </mxCell>
        <mxCell id="FCimhdWs5HZFkPtd6ZuO-2" value="+ Id: int&lt;div&gt;+ Weight: float&lt;/div&gt;&lt;div&gt;+ IsRefridgirated: bool&lt;/div&gt;&lt;div&gt;+ merchandises: List&amp;lt;string&amp;gt;&lt;/div&gt;&lt;div&gt;+ color: string&lt;/div&gt;" style="text;strokeColor=none;fillColor=none;align=left;verticalAlign=top;spacingLeft=4;spacingRight=4;overflow=hidden;rotatable=0;points=[[0,0.5],[1,0.5]];portConstraint=eastwest;whiteSpace=wrap;html=1;" vertex="1" parent="FCimhdWs5HZFkPtd6ZuO-1">
          <mxGeometry y="26" width="180" height="84" as="geometry" />
        </mxCell>
        <mxCell id="FCimhdWs5HZFkPtd6ZuO-3" value="" style="line;strokeWidth=1;fillColor=none;align=left;verticalAlign=middle;spacingTop=-1;spacingLeft=3;spacingRight=3;rotatable=0;labelPosition=right;points=[];portConstraint=eastwest;strokeColor=inherit;" vertex="1" parent="FCimhdWs5HZFkPtd6ZuO-1">
          <mxGeometry y="110" width="180" height="8" as="geometry" />
        </mxCell>
        <mxCell id="FCimhdWs5HZFkPtd6ZuO-4" value="+ ViewContent(): void&lt;div&gt;+ AddMerchandise(string): void&lt;/div&gt;" style="text;strokeColor=none;fillColor=none;align=left;verticalAlign=top;spacingLeft=4;spacingRight=4;overflow=hidden;rotatable=0;points=[[0,0.5],[1,0.5]];portConstraint=eastwest;whiteSpace=wrap;html=1;" vertex="1" parent="FCimhdWs5HZFkPtd6ZuO-1">
          <mxGeometry y="118" width="180" height="52" as="geometry" />
        </mxCell>
        <mxCell id="FCimhdWs5HZFkPtd6ZuO-5" value="Boat" style="swimlane;fontStyle=1;align=center;verticalAlign=top;childLayout=stackLayout;horizontal=1;startSize=26;horizontalStack=0;resizeParent=1;resizeParentMax=0;resizeLast=0;collapsible=1;marginBottom=0;whiteSpace=wrap;html=1;" vertex="1" parent="1">
          <mxGeometry x="450" y="80" width="220" height="190" as="geometry" />
        </mxCell>
        <mxCell id="FCimhdWs5HZFkPtd6ZuO-6" value="+ name: string&lt;div&gt;+ MaxCargoWeight: float&lt;/div&gt;&lt;div&gt;+ maxSpeed: int&lt;/div&gt;&lt;div&gt;+ cargoList: list&amp;lt;IContainer&amp;gt;&lt;/div&gt;&lt;div&gt;&lt;br&gt;&lt;/div&gt;" style="text;strokeColor=none;fillColor=none;align=left;verticalAlign=top;spacingLeft=4;spacingRight=4;overflow=hidden;rotatable=0;points=[[0,0.5],[1,0.5]];portConstraint=eastwest;whiteSpace=wrap;html=1;" vertex="1" parent="FCimhdWs5HZFkPtd6ZuO-5">
          <mxGeometry y="26" width="220" height="74" as="geometry" />
        </mxCell>
        <mxCell id="FCimhdWs5HZFkPtd6ZuO-7" value="" style="line;strokeWidth=1;fillColor=none;align=left;verticalAlign=middle;spacingTop=-1;spacingLeft=3;spacingRight=3;rotatable=0;labelPosition=right;points=[];portConstraint=eastwest;strokeColor=inherit;" vertex="1" parent="FCimhdWs5HZFkPtd6ZuO-5">
          <mxGeometry y="100" width="220" height="10" as="geometry" />
        </mxCell>
        <mxCell id="FCimhdWs5HZFkPtd6ZuO-8" value="+ start(): void&lt;div&gt;+ LoadContainer(IContainer): bool&lt;/div&gt;&lt;div&gt;+ UnloadContainer(IContainer): bool&lt;/div&gt;" style="text;strokeColor=none;fillColor=none;align=left;verticalAlign=top;spacingLeft=4;spacingRight=4;overflow=hidden;rotatable=0;points=[[0,0.5],[1,0.5]];portConstraint=eastwest;whiteSpace=wrap;html=1;" vertex="1" parent="FCimhdWs5HZFkPtd6ZuO-5">
          <mxGeometry y="110" width="220" height="80" as="geometry" />
        </mxCell>
        <mxCell id="FCimhdWs5HZFkPtd6ZuO-9" value="Text" style="text;html=1;align=center;verticalAlign=middle;resizable=0;points=[];autosize=1;strokeColor=none;fillColor=none;" vertex="1" parent="1">
          <mxGeometry x="390" y="540" width="50" height="30" as="geometry" />
        </mxCell>
      </root>
    </mxGraphModel>
  </diagram>
</mxfile>
